<svg xmlns="http://www.w3.org/2000/svg" xmlns:xlink="http://www.w3.org/1999/xlink" version="1.1" width="256" height="256" viewBox="0 0 256 256" xml:space="preserve">

<defs>
</defs>
<g style="stroke: none; stroke-width: 0; stroke-dasharray: none; stroke-linecap: butt; stroke-linejoin: miter; stroke-miterlimit: 10; fill: none; fill-rule: nonzero; opacity: 1;" transform="translate(1.4065934065934016 1.4065934065934016) scale(2.81 2.81)" >
	<circle cx="45" cy="45" r="45" style="stroke: none; stroke-width: 1; stroke-dasharray: none; stroke-linecap: butt; stroke-linejoin: miter; stroke-miterlimit: 10; fill: rgb(228,77,38); fill-rule: nonzero; opacity: 1;" transform="  matrix(1 0 0 1 0 0) "/>
	<polygon points="28.77,65 25.16,24.5 64.84,24.5 61.23,65 44.98,69.5 " style="stroke: none; stroke-width: 1; stroke-dasharray: none; stroke-linecap: butt; stroke-linejoin: miter; stroke-miterlimit: 10; fill: rgb(255,255,255); fill-rule: nonzero; opacity: 1;" transform="  matrix(1 0 0 1 0 0) "/>
	<polygon points="45.02,32.94 45,32.94 32.56,32.94 32.68,34.27 33.9,47.96 45,47.96 45.02,47.96 51.11,47.96 50.54,54.4 45,55.89 45,55.9 44.99,55.9 39.46,54.4 39.11,50.44 36.42,50.44 34.12,50.44 34.82,58.24 44.99,61.06 45.02,61.06 45.02,61.06 55.18,58.24 55.26,57.4 56.42,44.32 56.54,42.99 55.21,42.99 45.02,42.99 45,42.99 38.44,42.99 37.99,37.9 45,37.9 45.02,37.9 56.98,37.9 57,37.9 57.1,36.79 57.32,34.27 57.44,32.94 " style="stroke: none; stroke-width: 1; stroke-dasharray: none; stroke-linecap: butt; stroke-linejoin: miter; stroke-miterlimit: 10; fill: rgb(228,77,38); fill-rule: nonzero; opacity: 1;" transform="  matrix(1 0 0 1 0 0) "/>
</g>
</svg>